M48
; DRILL file {KiCad 9.0.2} date 2025-06-07T15:03:33+0800
; FORMAT={-:-/ absolute / metric / decimal}
; #@! TF.CreationDate,2025-06-07T15:03:33+08:00
; #@! TF.GenerationSoftware,Kicad,Pcbnew,9.0.2
; #@! TF.FileFunction,Plated,1,2,PTH
FMAT,2
METRIC
; #@! TA.AperFunction,Plated,PTH,ComponentDrill
T1C0.700
; #@! TA.AperFunction,Plated,PTH,ComponentDrill
T2C1.000
%
G90
G05
T1
X58.14Y-143.94
X58.14Y-179.5
X62.14Y-143.94
X62.14Y-179.5
X86.64Y-140.5
X90.64Y-140.5
X114.99Y-143.95
X114.99Y-180.1
X118.99Y-143.95
X118.99Y-180.1
T2
X77.14Y-143.94
X77.14Y-146.48
X77.14Y-149.02
X77.14Y-151.56
X77.14Y-154.1
X77.14Y-156.64
X77.14Y-159.18
X77.14Y-161.72
X77.14Y-164.26
X77.14Y-166.8
X77.14Y-169.34
X77.14Y-171.88
X77.14Y-174.42
X77.14Y-176.96
X77.14Y-179.5
X100.0Y-143.94
X100.0Y-146.48
X100.0Y-149.02
X100.0Y-151.56
X100.0Y-154.1
X100.0Y-156.64
X100.0Y-159.18
X100.0Y-161.72
X100.0Y-164.26
X100.0Y-166.8
X100.0Y-169.34
X100.0Y-171.88
X100.0Y-174.42
X100.0Y-176.96
X100.0Y-179.5
M30
