%TF.GenerationSoftware,KiCad,Pcbnew,9.0.2*%
%TF.CreationDate,2025-06-07T15:03:38+08:00*%
%TF.ProjectId,fks-0,666b732d-302e-46b6-9963-61645f706362,rev?*%
%TF.SameCoordinates,Original*%
%TF.FileFunction,Legend,Top*%
%TF.FilePolarity,Positive*%
%FSLAX46Y46*%
G04 Gerber Fmt 4.6, Leading zero omitted, Abs format (unit mm)*
G04 Created by KiCad (PCBNEW 9.0.2) date 2025-06-07 15:03:38*
%MOMM*%
%LPD*%
G01*
G04 APERTURE LIST*
%ADD10C,0.150000*%
%ADD11C,0.120000*%
G04 APERTURE END LIST*
D10*
X59330476Y-146444819D02*
X59330476Y-145444819D01*
X59330476Y-145444819D02*
X59663809Y-146159104D01*
X59663809Y-146159104D02*
X59997142Y-145444819D01*
X59997142Y-145444819D02*
X59997142Y-146444819D01*
X60901904Y-145778152D02*
X60901904Y-146444819D01*
X60663809Y-145397200D02*
X60425714Y-146111485D01*
X60425714Y-146111485D02*
X61044761Y-146111485D01*
X76806666Y-140624819D02*
X76806666Y-141339104D01*
X76806666Y-141339104D02*
X76759047Y-141481961D01*
X76759047Y-141481961D02*
X76663809Y-141577200D01*
X76663809Y-141577200D02*
X76520952Y-141624819D01*
X76520952Y-141624819D02*
X76425714Y-141624819D01*
X77806666Y-141624819D02*
X77235238Y-141624819D01*
X77520952Y-141624819D02*
X77520952Y-140624819D01*
X77520952Y-140624819D02*
X77425714Y-140767676D01*
X77425714Y-140767676D02*
X77330476Y-140862914D01*
X77330476Y-140862914D02*
X77235238Y-140910533D01*
X116180476Y-182604819D02*
X116180476Y-181604819D01*
X116180476Y-181604819D02*
X116513809Y-182319104D01*
X116513809Y-182319104D02*
X116847142Y-181604819D01*
X116847142Y-181604819D02*
X116847142Y-182604819D01*
X117228095Y-181604819D02*
X117847142Y-181604819D01*
X117847142Y-181604819D02*
X117513809Y-181985771D01*
X117513809Y-181985771D02*
X117656666Y-181985771D01*
X117656666Y-181985771D02*
X117751904Y-182033390D01*
X117751904Y-182033390D02*
X117799523Y-182081009D01*
X117799523Y-182081009D02*
X117847142Y-182176247D01*
X117847142Y-182176247D02*
X117847142Y-182414342D01*
X117847142Y-182414342D02*
X117799523Y-182509580D01*
X117799523Y-182509580D02*
X117751904Y-182557200D01*
X117751904Y-182557200D02*
X117656666Y-182604819D01*
X117656666Y-182604819D02*
X117370952Y-182604819D01*
X117370952Y-182604819D02*
X117275714Y-182557200D01*
X117275714Y-182557200D02*
X117228095Y-182509580D01*
X59330476Y-177904819D02*
X59330476Y-176904819D01*
X59330476Y-176904819D02*
X59663809Y-177619104D01*
X59663809Y-177619104D02*
X59997142Y-176904819D01*
X59997142Y-176904819D02*
X59997142Y-177904819D01*
X60997142Y-177904819D02*
X60425714Y-177904819D01*
X60711428Y-177904819D02*
X60711428Y-176904819D01*
X60711428Y-176904819D02*
X60616190Y-177047676D01*
X60616190Y-177047676D02*
X60520952Y-177142914D01*
X60520952Y-177142914D02*
X60425714Y-177190533D01*
X99666666Y-140624819D02*
X99666666Y-141339104D01*
X99666666Y-141339104D02*
X99619047Y-141481961D01*
X99619047Y-141481961D02*
X99523809Y-141577200D01*
X99523809Y-141577200D02*
X99380952Y-141624819D01*
X99380952Y-141624819D02*
X99285714Y-141624819D01*
X100095238Y-140720057D02*
X100142857Y-140672438D01*
X100142857Y-140672438D02*
X100238095Y-140624819D01*
X100238095Y-140624819D02*
X100476190Y-140624819D01*
X100476190Y-140624819D02*
X100571428Y-140672438D01*
X100571428Y-140672438D02*
X100619047Y-140720057D01*
X100619047Y-140720057D02*
X100666666Y-140815295D01*
X100666666Y-140815295D02*
X100666666Y-140910533D01*
X100666666Y-140910533D02*
X100619047Y-141053390D01*
X100619047Y-141053390D02*
X100047619Y-141624819D01*
X100047619Y-141624819D02*
X100666666Y-141624819D01*
X87854285Y-142931009D02*
X87997142Y-142978628D01*
X87997142Y-142978628D02*
X88044761Y-143026247D01*
X88044761Y-143026247D02*
X88092380Y-143121485D01*
X88092380Y-143121485D02*
X88092380Y-143264342D01*
X88092380Y-143264342D02*
X88044761Y-143359580D01*
X88044761Y-143359580D02*
X87997142Y-143407200D01*
X87997142Y-143407200D02*
X87901904Y-143454819D01*
X87901904Y-143454819D02*
X87520952Y-143454819D01*
X87520952Y-143454819D02*
X87520952Y-142454819D01*
X87520952Y-142454819D02*
X87854285Y-142454819D01*
X87854285Y-142454819D02*
X87949523Y-142502438D01*
X87949523Y-142502438D02*
X87997142Y-142550057D01*
X87997142Y-142550057D02*
X88044761Y-142645295D01*
X88044761Y-142645295D02*
X88044761Y-142740533D01*
X88044761Y-142740533D02*
X87997142Y-142835771D01*
X87997142Y-142835771D02*
X87949523Y-142883390D01*
X87949523Y-142883390D02*
X87854285Y-142931009D01*
X87854285Y-142931009D02*
X87520952Y-142931009D01*
X88378095Y-142454819D02*
X88949523Y-142454819D01*
X88663809Y-143454819D02*
X88663809Y-142454819D01*
X89806666Y-143454819D02*
X89235238Y-143454819D01*
X89520952Y-143454819D02*
X89520952Y-142454819D01*
X89520952Y-142454819D02*
X89425714Y-142597676D01*
X89425714Y-142597676D02*
X89330476Y-142692914D01*
X89330476Y-142692914D02*
X89235238Y-142740533D01*
X116180476Y-142354819D02*
X116180476Y-141354819D01*
X116180476Y-141354819D02*
X116513809Y-142069104D01*
X116513809Y-142069104D02*
X116847142Y-141354819D01*
X116847142Y-141354819D02*
X116847142Y-142354819D01*
X117275714Y-141450057D02*
X117323333Y-141402438D01*
X117323333Y-141402438D02*
X117418571Y-141354819D01*
X117418571Y-141354819D02*
X117656666Y-141354819D01*
X117656666Y-141354819D02*
X117751904Y-141402438D01*
X117751904Y-141402438D02*
X117799523Y-141450057D01*
X117799523Y-141450057D02*
X117847142Y-141545295D01*
X117847142Y-141545295D02*
X117847142Y-141640533D01*
X117847142Y-141640533D02*
X117799523Y-141783390D01*
X117799523Y-141783390D02*
X117228095Y-142354819D01*
X117228095Y-142354819D02*
X117847142Y-142354819D01*
D11*
%TO.C,J1*%
X75810000Y-145210000D02*
X75810000Y-180830000D01*
X75810000Y-145210000D02*
X78470000Y-145210000D01*
X75810000Y-180830000D02*
X78470000Y-180830000D01*
X77140000Y-142610000D02*
X78470000Y-142610000D01*
X78470000Y-142610000D02*
X78470000Y-143940000D01*
X78470000Y-145210000D02*
X78470000Y-180830000D01*
%TO.C,J2*%
X98670000Y-145210000D02*
X98670000Y-180830000D01*
X98670000Y-145210000D02*
X101330000Y-145210000D01*
X98670000Y-180830000D02*
X101330000Y-180830000D01*
X100000000Y-142610000D02*
X101330000Y-142610000D01*
X101330000Y-142610000D02*
X101330000Y-143940000D01*
X101330000Y-145210000D02*
X101330000Y-180830000D01*
%TD*%
M02*
